<svg width="40" height="40" viewBox="0 0 32 32" fill="#ff4501" xmlns="http://www.w3.org/2000/svg">
<path d="M28 19.0001V26.0001C28 26.5305 27.7893 27.0392 27.4142 27.4143C27.0391 27.7893 26.5304 28.0001 26 28.0001H6C5.46957 28.0001 4.96086 27.7893 4.58579 27.4143C4.21071 27.0392 4 26.5305 4 26.0001V19.0001C4 18.7348 4.10536 18.4805 4.29289 18.2929C4.48043 18.1054 4.73478 18.0001 5 18.0001C5.26522 18.0001 5.51957 18.1054 5.70711 18.2929C5.89464 18.4805 6 18.7348 6 19.0001V26.0001H26V19.0001C26 18.7348 26.1054 18.4805 26.2929 18.2929C26.4804 18.1054 26.7348 18.0001 27 18.0001C27.2652 18.0001 27.5196 18.1054 27.7071 18.2929C27.8946 18.4805 28 18.7348 28 19.0001ZM11.7075 10.7076L15 7.4138V19.0001C15 19.2653 15.1054 19.5196 15.2929 19.7072C15.4804 19.8947 15.7348 20.0001 16 20.0001C16.2652 20.0001 16.5196 19.8947 16.7071 19.7072C16.8946 19.5196 17 19.2653 17 19.0001V7.4138L20.2925 10.7076C20.4801 10.8952 20.7346 11.0006 21 11.0006C21.2654 11.0006 21.5199 10.8952 21.7075 10.7076C21.8951 10.5199 22.0006 10.2654 22.0006 10.0001C22.0006 9.73469 21.8951 9.48019 21.7075 9.29255L16.7075 4.29255C16.6146 4.19958 16.5043 4.12582 16.3829 4.07549C16.2615 4.02517 16.1314 3.99927 16 3.99927C15.8686 3.99927 15.7385 4.02517 15.6171 4.07549C15.4957 4.12582 15.3854 4.19958 15.2925 4.29255L10.2925 9.29255C10.1049 9.48019 9.99944 9.73469 9.99944 10.0001C9.99944 10.2654 10.1049 10.5199 10.2925 10.7076C10.4801 10.8952 10.7346 11.0006 11 11.0006C11.2654 11.0006 11.5199 10.8952 11.7075 10.7076Z" fill="black"/>
</svg>
