<svg width="32" height="32" viewBox="0 0 32 32" fill="none" xmlns="http://www.w3.org/2000/svg">
<path d="M29.6001 23.5113L18.6689 4.52752C18.3957 4.06243 18.0057 3.67679 17.5376 3.40885C17.0695 3.1409 16.5395 2.99994 16.0001 2.99994C15.4607 2.99994 14.9307 3.1409 14.4626 3.40885C13.9945 3.67679 13.6045 4.06243 13.3314 4.52752L2.40012 23.5113C2.13729 23.9611 1.99878 24.4728 1.99878 24.9938C1.99878 25.5148 2.13729 26.0264 2.40012 26.4763C2.66978 26.9442 3.05908 27.3319 3.52807 27.5997C3.99706 27.8675 4.52885 28.0056 5.06887 28H26.9314C27.471 28.0052 28.0022 27.8668 28.4707 27.599C28.9393 27.3313 29.3282 26.9438 29.5976 26.4763C29.8608 26.0266 29.9998 25.5151 30.0002 24.9941C30.0007 24.4731 29.8626 23.9613 29.6001 23.5113ZM27.8664 25.475C27.7711 25.6376 27.6343 25.7719 27.47 25.8641C27.3057 25.9564 27.1198 26.0033 26.9314 26H5.06887C4.88047 26.0033 4.69458 25.9564 4.53028 25.8641C4.36598 25.7719 4.22917 25.6376 4.13387 25.475C4.04755 25.3289 4.00202 25.1623 4.00202 24.9925C4.00202 24.8228 4.04755 24.6562 4.13387 24.51L15.0651 5.52627C15.1623 5.36449 15.2998 5.23061 15.4641 5.13767C15.6283 5.04473 15.8139 4.99589 16.0026 4.99589C16.1914 4.99589 16.3769 5.04473 16.5412 5.13767C16.7055 5.23061 16.8429 5.36449 16.9401 5.52627L27.8714 24.51C27.9569 24.6566 28.0016 24.8235 28.0007 24.9932C27.9998 25.1629 27.9534 25.3293 27.8664 25.475ZM15.0001 18V13C15.0001 12.7348 15.1055 12.4805 15.293 12.2929C15.4805 12.1054 15.7349 12 16.0001 12C16.2653 12 16.5197 12.1054 16.7072 12.2929C16.8948 12.4805 17.0001 12.7348 17.0001 13V18C17.0001 18.2652 16.8948 18.5196 16.7072 18.7071C16.5197 18.8947 16.2653 19 16.0001 19C15.7349 19 15.4805 18.8947 15.293 18.7071C15.1055 18.5196 15.0001 18.2652 15.0001 18ZM17.5001 22.5C17.5001 22.7967 17.4121 23.0867 17.2473 23.3334C17.0825 23.58 16.8482 23.7723 16.5741 23.8858C16.3001 23.9994 15.9985 24.0291 15.7075 23.9712C15.4165 23.9133 15.1492 23.7705 14.9395 23.5607C14.7297 23.3509 14.5868 23.0836 14.5289 22.7927C14.4711 22.5017 14.5008 22.2001 14.6143 21.926C14.7278 21.6519 14.9201 21.4176 15.1668 21.2528C15.4134 21.088 15.7034 21 16.0001 21C16.3979 21 16.7795 21.1581 17.0608 21.4394C17.3421 21.7207 17.5001 22.1022 17.5001 22.5Z" fill="black"/>
</svg>
